<?xml version="1.0" encoding="UTF-8"?>
<svg id="Layer_2" data-name="Layer 2" xmlns="http://www.w3.org/2000/svg" viewBox="0 0 281.691 281.691">
  <defs>
    <style>
      .cls-1 {
        fill: #000;
      }

      .cls-1, .cls-2 {
        stroke-width: 0px;
      }

      .cls-2 {
        fill: #fff;
      }
    </style>
  </defs>
  <circle class="cls-1" cx="140.846" cy="140.846" r="140.846"/>
  <path class="cls-2" d="M90.628,189.158c-20.177-1.282-38.884-14.668-46.858-33.091-20.093-43.129,22.891-91.509,68.157-76.585,6.913,2.468,5.047-3.635,5.385-7.988.035-9.334.126-18.63-.027-28.008-.232-3.72.708-6.414,5.139-5.935,4.247.17,8.421.031,12.696.023,3.396-.134,3.881,2.761,3.726,5.558-.775,18.507,1.413,37.528-.93,55.765-3.955,6.062-6.662,12.993-9.319,20.185-.451.518-1.282-.793-1.645-1.459-4.813-8.503-11.021-14.699-19.9-17.711-22.426-9.502-49.887,10.847-47.348,35.201,1.501,28.47,34.242,43.355,56.66,26.443,8.592-6.369,13.942-17.531,13.876-28.617.2-18.797,10.261-37.023,25.671-47.081,34.256-23.218,85.402,1.774,86.428,43.327.681,16.204.799,32.403.514,48.613.853,20.886-4.554,42.981-21.82,54.626-22.817,17.552-56.094,15.42-75.609-6.037-2.757-2.673-1.333-5.706.548-8.291,2.66-4.118,4.421-8.691,6.05-13.752.944-3.444,2.172-1.029,3.795,1.381,11.599,18.129,31.451,22.782,50.037,11.911,11.892-7.02,17.347-20.855,15.74-37.068-.162-1.485-.793-2.413-2.353-1.494-22.695,15.576-52.579,12.941-72.566-5.703-1.421-1.286-3.033-2.936-2.983-4.877.036-1.807,1.289-3.489,2.249-4.968,2.903-4.34,4.58-9.264,6-14.89.174-.582.387-1.648.851-1.835.485-.152.97.719,1.26,1.173,2.696,4.724,5.704,8.842,9.375,12.08,9.008,7.955,22.826,11.007,34.296,6.752,27.951-9.372,32.753-47.894,7.812-63.445-21.963-15.378-54.957,2.191-54.239,29.026-.415,34.233-26.758,57.814-60.482,56.77h-.19Z"/>
</svg>