<?xml version="1.0" encoding="UTF-8"?>
<svg id="Layer_2" data-name="Layer 2" xmlns="http://www.w3.org/2000/svg" viewBox="0 0 281.69 281.69">
  <defs>
    <style>
      .cls-1 {
        fill: #2a7b9b;
      }

      .cls-1, .cls-2 {
        stroke-width: 0px;
      }

      .cls-2 {
        fill: #fff;
      }
    </style>
  </defs>
  <circle class="cls-1" cx="140.85" cy="140.85" r="140.85"/>
  <path class="cls-2" d="M90.63,189.16c-20.18-1.28-38.88-14.67-46.86-33.09-20.09-43.13,22.89-91.51,68.16-76.58,6.91,2.47,5.05-3.63,5.39-7.99.03-9.33.13-18.63-.03-28.01-.23-3.72.71-6.41,5.14-5.94,4.25.17,8.42.03,12.7.02,3.4-.13,3.88,2.76,3.73,5.56-.78,18.51,1.41,37.53-.93,55.77-3.96,6.06-6.66,12.99-9.32,20.19-.45.52-1.28-.79-1.64-1.46-4.81-8.5-11.02-14.7-19.9-17.71-22.43-9.5-49.89,10.85-47.35,35.2,1.5,28.47,34.24,43.36,56.66,26.44,8.59-6.37,13.94-17.53,13.88-28.62.2-18.8,10.26-37.02,25.67-47.08,34.26-23.22,85.4,1.77,86.43,43.33.68,16.2.8,32.4.51,48.61.85,20.89-4.55,42.98-21.82,54.63-22.82,17.55-56.09,15.42-75.61-6.04-2.76-2.67-1.33-5.71.55-8.29,2.66-4.12,4.42-8.69,6.05-13.75.94-3.44,2.17-1.03,3.79,1.38,11.6,18.13,31.45,22.78,50.04,11.91,11.89-7.02,17.35-20.86,15.74-37.07-.16-1.49-.79-2.41-2.35-1.49-22.69,15.58-52.58,12.94-72.57-5.7-1.42-1.29-3.03-2.94-2.98-4.88.04-1.81,1.29-3.49,2.25-4.97,2.9-4.34,4.58-9.26,6-14.89.17-.58.39-1.65.85-1.83.49-.15.97.72,1.26,1.17,2.7,4.72,5.7,8.84,9.38,12.08,9.01,7.96,22.83,11.01,34.3,6.75,27.95-9.37,32.75-47.89,7.81-63.44-21.96-15.38-54.96,2.19-54.24,29.03-.42,34.23-26.76,57.81-60.48,56.77h-.19Z"/>
</svg>